<?xml version="1.0" encoding="UTF-8"?>
<svg width="50px" height="49px" viewBox="0 0 50 49" version="1.1" xmlns="http://www.w3.org/2000/svg" xmlns:xlink="http://www.w3.org/1999/xlink">
  <!-- Generator: Sketch 51.3 (57544) - http://www.bohemiancoding.com/sketch -->
  <title>Icon</title>
  <g stroke="none" stroke-width="1" fill="none" fill-rule="evenodd">
    <g transform="translate(-111.000000, -24.000000)" fill="#FFFFFF" fill-rule="nonzero">
      <g >
        <g transform="translate(111.000000, 24.000000)">
          <path d="M28.9320171,49 C28.6627777,48.9555253 28.3935383,48.9221693 28.1355172,48.8554572 C27.036123,48.5774904 26.2957146,47.8770138 25.802109,46.8874518 C25.4655598,46.1980939 25.2860669,45.4642614 25.1963204,44.7193102 C24.9719542,43.0737463 24.9382993,41.4281824 25.0280458,39.7714999 C25.1290105,37.8813252 25.5665246,36.0467438 26.2284048,34.2788745 C26.7332286,32.9223962 27.3502356,31.6215112 28.0008975,30.3206263 C28.7188692,28.8751985 29.4704958,27.4297708 30.1099394,25.9398684 C30.7381647,24.4610846 31.2429886,22.9378262 31.512228,21.3478557 C31.6692843,20.447243 31.7478124,19.5466304 31.7478124,18.634899 C31.7478124,17.0560472 31.7478124,15.4771954 31.7478124,13.8872249 C31.7478124,13.8538688 31.7478124,13.8093941 31.7478124,13.7649194 C27.2268342,13.7649194 22.7170743,13.7649194 18.196096,13.7649194 C18.196096,13.7982755 18.1848777,13.8316315 18.1848777,13.8649875 C18.1848777,15.488314 18.1848777,17.1116406 18.1848777,18.7349671 C18.196096,22.670978 19.1496522,26.3734967 21.0567646,29.8202859 C21.651335,30.8987974 22.2683419,31.9550715 22.8741306,33.0224643 C23.2443348,33.6784661 23.580884,34.3567052 23.8164685,35.0794191 C24.0408346,35.7798956 23.6818488,36.5248468 22.9863137,36.7694577 C22.2907786,37.0251872 21.505497,36.691627 21.2586942,36.0133878 C20.9333632,35.1238938 20.4734126,34.3011119 20.0022437,33.4894486 C19.2169621,32.1329703 18.4204622,30.7764919 17.758582,29.3421829 C16.7601526,27.1962786 16.0758358,24.961425 15.7392865,22.6265033 C15.5485753,21.3589744 15.4476105,20.0803268 15.4476105,18.8016791 C15.4476105,16.6780123 15.4476105,14.5543454 15.4476105,12.4306785 C15.4476105,11.6968459 15.9075611,11.1409122 16.6143146,11.0297254 C16.6816244,11.0186068 16.7489343,11.0186068 16.8162441,11.0186068 C22.2459053,11.0186068 27.6867848,11.0186068 33.116446,11.0186068 C33.8680727,11.0186068 34.4738613,11.5856592 34.496298,12.3306104 C34.5075163,12.7308827 34.496298,13.131155 34.496298,13.5314273 C34.496298,15.3104152 34.5075163,17.1005219 34.4850796,18.8795099 C34.462643,20.7696846 34.1485304,22.6265033 33.587615,24.4388473 C33.1052277,25.9732244 32.4657842,27.4520082 31.770249,28.8974359 C31.0859322,30.3095076 30.3679605,31.7104606 29.694862,33.1225323 C28.9993269,34.5790787 28.4384115,36.0912185 28.0906439,37.6700703 C27.8550595,38.7485818 27.7316581,39.8493306 27.7540947,40.9500794 C27.7765313,41.8284547 27.7877496,42.70683 27.8326228,43.5852054 C27.8662778,44.1967325 27.9448059,44.7971409 28.1467355,45.375312 C28.3935383,46.0757885 28.7076509,46.2870433 29.4592775,46.2759247 C30.0987211,46.264806 30.7157281,46.0980259 31.3215167,45.9201271 C34.787974,44.8860903 37.8393538,43.1404584 40.430783,40.6387565 C43.7289657,37.4699342 45.8492259,33.6451101 46.7803455,29.1865214 C47.1281131,27.5187202 47.2739511,25.8286816 47.2178595,24.1275244 C47.0495849,19.1463581 45.3892753,14.7211255 42.2257124,10.8518266 C40.2176352,8.3945995 37.7832623,6.47106875 34.933812,5.05899705 C32.9257348,4.05831631 30.8166928,3.38007715 28.6066861,3.02427956 C27.2043976,2.79078738 25.7908907,2.70183799 24.3661656,2.73519401 C21.1577294,2.82414341 18.0951313,3.55797595 15.212026,4.95892898 C12.9010545,6.08191514 10.8481041,7.54958021 9.05317478,9.38416156 C6.65245681,11.83027 4.91361903,14.6655321 3.83666143,17.9010665 C3.32061925,19.457681 2.98407,21.0587701 2.82701369,22.704334 C2.45680951,26.7626503 3.1186897,30.6430678 4.91361903,34.3122305 C7.08997083,38.7708192 10.4105901,42.128659 14.8306035,44.419106 C16.1431456,45.0973451 17.5117792,45.6199229 18.9365044,46.0201951 C19.6208212,46.2092126 20.0246803,46.8207397 19.9349338,47.5212162 C19.8564057,48.1660994 19.2954902,48.6664398 18.6223917,48.6886771 C18.487772,48.6886771 18.341934,48.6775584 18.2073143,48.6330837 C14.2921247,47.5323349 10.8593224,45.6088042 7.88647072,42.8513728 C5.69890061,40.827774 3.93762621,38.4706149 2.60264752,35.8132516 C1.45838008,33.5339233 0.684316805,31.1211709 0.291676015,28.5972317 C0.134619699,27.6076696 0.0448732331,26.6181076 0.0112183083,25.6285455 C0.0112183083,25.6063081 0,25.5729521 0,25.5507148 C0,25.0503744 0,24.5389154 0,24.038575 C0.0112183083,23.8050828 0.0336549248,23.5715907 0.0448732331,23.3380985 C0.157056316,21.3478557 0.504823873,19.3909689 1.11061252,17.4785568 C2.38949966,13.4091219 4.57706978,9.8956206 7.67332286,6.92693442 C9.56921696,5.11459042 11.7006955,3.63580667 14.0677586,2.49058316 C17.0854835,1.03403676 20.2827014,0.222373497 23.6369755,0.0444746993 C23.9174333,0.0333560245 24.197891,0.0111186748 24.4783487,0 C24.8261162,0 25.1738838,0 25.5328696,0 C25.5553063,0 25.5889612,0.0111186748 25.6113978,0.0111186748 C26.2844963,0.0555933742 26.9575948,0.0778307238 27.6306933,0.144542773 C29.4929325,0.32244157 31.2990801,0.722713864 33.0715728,1.32312231 C36.8857976,2.62400726 40.1951986,4.71431813 42.9997756,7.58293624 C44.8507965,9.48422963 46.3540498,11.6190152 47.5095356,13.9984116 C48.9566973,16.9670978 49.7756338,20.1025641 49.9551268,23.4048105 C49.9663451,23.6716587 49.9887817,23.9385069 50,24.2053551 C50,24.5833901 50,24.961425 50,25.3505786 C50,25.372816 49.9887817,25.406172 49.9887817,25.4284093 C49.9551268,26.8182437 49.8092888,28.1969594 49.5288311,29.5534377 C48.507965,34.5790787 46.1521203,38.8931246 42.4612968,42.4844565 C39.9259592,44.9528024 36.9755441,46.7985024 33.6324882,48.0215566 C32.6004039,48.3995916 31.5571012,48.7220331 30.457707,48.8888133 C30.2333408,48.9221693 29.9977563,48.9444066 29.7621719,48.9777627 C29.4704958,49 29.2012565,49 28.9320171,49 Z" />
        </g>
      </g>
    </g>
  </g>
</svg>
